<svg width="156" height="24" viewBox="0 0 156 24" fill="none" xmlns="http://www.w3.org/2000/svg">
<path d="M23.04 0H0.96C0.429 0 0 0.429 0 0.96V23.04C0 23.571 0.429 24 0.96 24H23.04C23.571 24 24 23.571 24 23.04V0.96C24 0.429 23.571 0 23.04 0ZM20.268 7.005H18.351C16.848 7.005 16.557 7.719 16.557 8.769V11.082H20.145L19.677 14.703H16.557V24H12.816V14.706H9.687V11.082H12.816V8.412C12.816 5.313 14.709 3.624 17.475 3.624C18.801 3.624 19.938 3.723 20.271 3.768V7.005H20.268Z" fill="#335BF5"/>
<path d="M56.0016 5.84744C52.5966 5.84744 49.8486 8.59544 49.8486 12.0004C49.8486 15.4054 52.5966 18.1534 56.0016 18.1534C59.4066 18.1534 62.1546 15.4054 62.1546 12.0004C62.1546 8.59544 59.4066 5.84744 56.0016 5.84744ZM56.0016 15.9994C53.7996 15.9994 52.0026 14.2024 52.0026 12.0004C52.0026 9.79844 53.7996 8.00144 56.0016 8.00144C58.2036 8.00144 60.0006 9.79844 60.0006 12.0004C60.0006 14.2024 58.2036 15.9994 56.0016 15.9994ZM62.4066 4.16144C61.6116 4.16144 60.9696 4.80344 60.9696 5.59844C60.9696 6.39344 61.6116 7.03544 62.4066 7.03544C63.2016 7.03544 63.8436 6.39644 63.8436 5.59844C63.8438 5.40966 63.8068 5.22269 63.7347 5.04824C63.6625 4.87379 63.5567 4.71528 63.4232 4.5818C63.2897 4.44831 63.1312 4.34247 62.9568 4.27034C62.7823 4.19821 62.5954 4.1612 62.4066 4.16144ZM67.9956 12.0004C67.9956 10.3444 68.0106 8.70344 67.9176 7.05044C67.8246 5.13044 67.3866 3.42644 65.9826 2.02244C64.5756 0.615437 62.8746 0.180437 60.9546 0.0874372C59.2986 -0.00556279 57.6576 0.00943725 56.0046 0.00943725C54.3486 0.00943725 52.7076 -0.00556279 51.0546 0.0874372C49.1346 0.180437 47.4306 0.618437 46.0266 2.02244C44.6196 3.42944 44.1846 5.13044 44.0916 7.05044C43.9986 8.70644 44.0136 10.3474 44.0136 12.0004C44.0136 13.6534 43.9986 15.2974 44.0916 16.9504C44.1846 18.8704 44.6226 20.5744 46.0266 21.9784C47.4336 23.3854 49.1346 23.8204 51.0546 23.9134C52.7106 24.0064 54.3516 23.9914 56.0046 23.9914C57.6606 23.9914 59.3016 24.0064 60.9546 23.9134C62.8746 23.8204 64.5786 23.3824 65.9826 21.9784C67.3896 20.5714 67.8246 18.8704 67.9176 16.9504C68.0136 15.2974 67.9956 13.6564 67.9956 12.0004ZM65.3556 19.0744C65.1366 19.6204 64.8726 20.0284 64.4496 20.4484C64.0266 20.8714 63.6216 21.1354 63.0756 21.3544C61.4976 21.9814 57.7506 21.8404 56.0016 21.8404C54.2526 21.8404 50.5026 21.9814 48.9246 21.3574C48.3786 21.1384 47.9706 20.8744 47.5506 20.4514C47.1276 20.0284 46.8636 19.6234 46.6446 19.0774C46.0206 17.4964 46.1616 13.7494 46.1616 12.0004C46.1616 10.2514 46.0206 6.50144 46.6446 4.92344C46.8636 4.37744 47.1276 3.96944 47.5506 3.54944C47.9736 3.12944 48.3786 2.86244 48.9246 2.64344C50.5026 2.01944 54.2526 2.16044 56.0016 2.16044C57.7506 2.16044 61.5006 2.01944 63.0786 2.64344C63.6246 2.86244 64.0326 3.12644 64.4526 3.54944C64.8756 3.97244 65.1396 4.37744 65.3586 4.92344C65.9826 6.50144 65.8416 10.2514 65.8416 12.0004C65.8416 13.7494 65.9826 17.4964 65.3556 19.0744Z" fill="#E61F5A"/>
<g clip-path="url(#clip0_964_12807)">
<path d="M112 4.46548C111.119 4.85141 110.159 5.12917 109.171 5.23735C110.197 4.61879 110.965 3.64156 111.332 2.48901C110.369 3.07022 109.314 3.47778 108.215 3.6936C107.755 3.19488 107.199 2.79758 106.581 2.52645C105.964 2.25532 105.298 2.11618 104.625 2.11769C101.902 2.11769 99.7123 4.3573 99.7123 7.10564C99.7123 7.49158 99.7584 7.87752 99.8333 8.24884C95.7565 8.03248 92.1205 6.05601 89.7032 3.0299C89.2627 3.79335 89.0319 4.66261 89.0348 5.54727C89.0348 7.27814 89.902 8.80435 91.2244 9.70195C90.4451 9.6708 89.684 9.45342 89.0031 9.06749V9.12889C89.0031 11.5527 90.6914 13.5613 92.9416 14.0233C92.5191 14.1347 92.0845 14.1916 91.648 14.1929C91.3282 14.1929 91.0256 14.1607 90.7202 14.1168C91.3426 16.0933 93.1548 17.5289 95.3128 17.5757C93.6244 18.9177 91.5097 19.7071 89.2134 19.7071C88.8014 19.7071 88.4211 19.6925 88.0264 19.6457C90.2045 21.0637 92.7889 21.8824 95.5721 21.8824C104.607 21.8824 109.551 14.2864 109.551 7.69332C109.551 7.47696 109.551 7.2606 109.537 7.04424C110.494 6.33377 111.332 5.45371 112 4.46548Z" fill="#21A6DF"/>
</g>
<g clip-path="url(#clip1_964_12807)">
<path d="M155.47 5.93166C155.333 5.3987 155.066 4.91276 154.695 4.52249C154.324 4.13221 153.862 3.85129 153.355 3.70783C151.488 3.17664 143.988 3.17664 143.988 3.17664C143.988 3.17664 136.487 3.17664 134.621 3.70783C134.114 3.85129 133.652 4.13221 133.281 4.52249C132.909 4.91276 132.642 5.3987 132.506 5.93166C132.157 7.93335 131.988 9.96501 132.001 11.9999C131.988 14.0348 132.157 16.0665 132.506 18.0682C132.642 18.6012 132.909 19.0871 133.281 19.4774C133.652 19.8676 134.114 20.1486 134.621 20.292C136.487 20.8232 143.988 20.8232 143.988 20.8232C143.988 20.8232 151.488 20.8232 153.355 20.292C153.862 20.1486 154.324 19.8676 154.695 19.4774C155.066 19.0871 155.333 18.6012 155.47 18.0682C155.818 16.0665 155.988 14.0348 155.975 11.9999C155.988 9.96501 155.818 7.93335 155.47 5.93166ZM141.59 15.7813V8.21852L147.815 11.9999L141.59 15.7813Z" fill="#E42F08"/>
</g>
<defs>
<clipPath id="clip0_964_12807">
<rect width="24" height="19.7647" fill="white" transform="translate(88 2.11768)"/>
</clipPath>
<clipPath id="clip1_964_12807">
<rect width="24" height="17.6842" fill="white" transform="translate(132 3.15784)"/>
</clipPath>
</defs>
</svg>
